<?xml version="1.0" encoding="UTF-8"?>
<svg xmlns="http://www.w3.org/2000/svg" width="1024" height="1024" viewBox="0 0 1024 1024">
  <defs>
    <linearGradient id="grad" x1="0%" y1="0%" x2="100%" y2="100%">
      <stop offset="0%" stop-color="#5B8CFF"/>
      <stop offset="100%" stop-color="#8A5BFF"/>
    </linearGradient>
    <filter id="shadow" x="-20%" y="-20%" width="140%" height="140%">
      <feDropShadow dx="0" dy="12" stdDeviation="24" flood-color="#2a2a2a" flood-opacity="0.25"/>
    </filter>
  </defs>

  <!-- Rounded square background with gradient -->
  <rect x="64" y="64" width="896" height="896" rx="220" ry="220" fill="url(#grad)" filter="url(#shadow)"/>

  <!-- Subtle inner shine -->
  <ellipse cx="512" cy="380" rx="420" ry="260" fill="#FFFFFF" opacity="0.08"/>

  <!-- Monogram LC -->
  <g fill="#FFFFFF">
    <!-- L -->
    <path d="M 350 300 L 430 300 L 430 660 L 650 660 L 650 730 L 350 730 Z" opacity="0.95"/>
    <!-- C -->
    <path d="M 720 340 C 650 300 570 300 510 320 C 420 350 370 420 370 512 C 370 604 420 674 510 704 C 570 724 650 724 720 684 L 720 598 C 664 638 601 644 550 628 C 492 610 460 565 460 512 C 460 459 492 414 550 396 C 601 380 664 386 720 426 Z" opacity="0.98"/>
  </g>

  <!-- Subtle outline -->
  <rect x="64" y="64" width="896" height="896" rx="220" ry="220" fill="none" stroke="#FFFFFF" stroke-opacity="0.15" stroke-width="8"/>
</svg>


