<?xml version="1.0" encoding="UTF-8"?>
<svg xmlns="http://www.w3.org/2000/svg" width="1024" height="1024" viewBox="0 0 1024 1024">
  <defs>
    <linearGradient id="grad" x1="0%" y1="0%" x2="100%" y2="100%">
      <stop offset="0%" stop-color="#5B8CFF"/>
      <stop offset="100%" stop-color="#8A5BFF"/>
    </linearGradient>
  </defs>
  <rect x="64" y="64" width="896" height="896" rx="220" ry="220" fill="url(#grad)"/>
  <g fill="#FFFFFF">
    <path d="M 330 300 L 430 300 L 430 660 L 660 660 L 660 740 L 330 740 Z"/>
    <path d="M 720 360 C 648 320 566 320 506 340 C 420 370 370 440 370 532 C 370 624 420 694 506 724 C 566 744 648 744 720 704 L 720 618 C 664 658 599 664 548 648 C 492 630 460 585 460 532 C 460 479 492 434 548 416 C 599 400 664 406 720 446 Z"/>
  </g>
</svg>
